<svg width="151" height="41" viewBox="0 0 151 41" fill="none" xmlns="http://www.w3.org/2000/svg">
<path d="M126.756 9.23238C127.966 9.23238 128.946 8.25187 128.946 7.04234C128.946 5.83281 127.966 4.85229 126.756 4.85229C125.547 4.85229 124.566 5.83281 124.566 7.04234C124.566 8.25187 125.547 9.23238 126.756 9.23238Z" fill="#08181A"></path>
<path d="M24.2017 13.4102C25.7091 13.4102 26.9311 12.1918 26.9311 10.6887C26.9311 9.18569 25.7091 7.96724 24.2017 7.96724C22.6944 7.96724 21.4724 9.18569 21.4724 10.6887C21.4724 12.1918 22.6944 13.4102 24.2017 13.4102Z" fill="#08181A"></path>
<path d="M46.7119 20.5021C45.6302 19.5913 44.2898 19.2526 43.0247 19.4251C42.9432 19.4408 42.8632 19.4517 42.7817 19.4643C42.7441 19.4721 42.7065 19.48 42.6688 19.4878L42.6736 19.4815C40.6998 19.7653 40.1684 20.3516 38.3938 19.1366C35.9184 17.4404 34.658 14.6327 34.8226 11.8407C34.8634 11.4566 34.8853 11.0678 34.8853 10.6728C34.8744 4.77045 30.0835 -0.00782875 24.1812 9.6299e-06C18.2789 0.00784801 13.5007 4.79867 13.5085 10.701C13.5085 11.0945 13.532 11.4832 13.5743 11.8673H13.5712C13.7436 14.6609 12.4911 17.4718 10.0188 19.1743C8.24737 20.3955 7.66263 19.7355 5.68892 19.4564L5.69362 19.4627C5.656 19.4549 5.61838 19.4455 5.57918 19.4392C5.49766 19.4267 5.41615 19.4157 5.33619 19.4C4.06951 19.2307 2.73072 19.5725 1.65215 20.4864C-0.0221256 21.9067 -0.487726 24.3492 0.550076 26.2837C1.90298 28.8061 5.09634 29.5303 7.38671 27.9517C8.49663 27.1867 9.17543 26.0297 9.36826 24.796L9.37296 24.8022C9.81661 22.8583 9.46545 22.1591 11.2369 20.9379C13.5195 19.3655 16.3146 19.1022 18.7367 19.9816C19.102 20.1149 19.4469 20.2983 19.7604 20.5272C21.8093 22.0243 23.1434 24.4417 23.1466 27.1726C23.1497 29.3234 22.3267 31.283 20.98 32.7535H20.9879C20.0097 33.6815 19.428 35.025 19.5284 36.5018C19.6883 38.8392 21.5961 40.7345 23.9351 40.8772C26.6738 41.0434 28.947 38.869 28.9423 36.1663C28.9407 34.9482 28.4767 33.8399 27.7179 33.0043C27.6599 32.9463 27.6035 32.8867 27.547 32.8256C27.522 32.7989 27.4953 32.7723 27.4702 32.7456C26.1189 31.2799 25.2912 29.3218 25.288 27.171C25.2849 24.5577 26.4998 22.2281 28.3952 20.7169C28.8733 20.3359 29.4141 20.0459 29.9958 19.8593C32.3394 19.1069 34.9919 19.4063 37.1804 20.905C38.955 22.1215 38.5537 22.8944 39.0021 24.8383L39.0068 24.832C39.2027 26.0658 39.8847 27.2211 40.9961 27.983C43.2897 29.5554 46.4814 28.8217 47.8281 26.2962C48.8612 24.3586 48.3893 21.9177 46.7103 20.5021H46.7119ZM24.2032 16.5594C20.9659 16.5641 18.3275 13.9335 18.3244 10.6963C18.3197 7.45902 20.9503 4.82062 24.1875 4.81748C27.4248 4.81278 30.0632 7.44334 30.0663 10.6806C30.071 13.9178 27.4404 16.5562 24.2032 16.5594Z" fill="#08181A"></path>
<path d="M80.6924 31.6458C79.8537 33.6995 79.1419 34.9975 77.1306 34.9975C75.1193 34.9975 74.3652 33.6979 73.5281 31.6458L64.8134 9.90056C64.6456 9.48199 64.3525 8.97876 64.0593 8.97876C63.7238 8.97876 63.5153 9.39733 63.5153 9.81747L63.5984 34.6636H59.7012V8.30937C59.7012 6.17262 61.1262 5 63.4307 5C65.9452 5 66.8247 6.42502 67.6211 8.35169L76.3781 30.0546C76.5882 30.5986 76.7559 31.0595 77.1322 31.0595C77.4677 31.0595 77.6762 30.5986 77.8862 30.0546L86.6433 8.35169C87.3973 6.42502 88.2768 5 90.7913 5C93.0958 5 94.5616 6.17262 94.5616 8.30937V34.6636H90.6644L90.7474 9.81747C90.7474 9.06342 90.3696 8.97876 90.2035 8.97876C89.9103 8.97876 89.6172 9.48199 89.4494 9.90056L80.6924 31.6458Z" fill="#08181A"></path>
<path d="M107.387 34.6634C101.856 34.6634 100.306 32.0234 100.306 27.5398V15.3057H97.0374V12.4572H100.306V5.3337H103.825V12.4572H110.027V15.3057H103.825V27.3313C103.825 30.7677 105.166 31.8149 108.56 31.8149H110.026V34.6634H107.386H107.387Z" fill="#08181A"></path>
<path d="M112.289 20.4586C112.289 14.9701 114.97 12.4556 120.46 12.4556H122.89V15.304H121.088C117.234 15.304 115.808 17.273 115.808 21.338V34.6617H112.289V20.4586Z" fill="#08181A"></path>
<path d="M128.547 12.4575H125.027V34.6637H128.547V12.4575Z" fill="#08181A"></path>
<path d="M146.813 34.6637L140.612 25.6981L134.452 34.6637H130.262L138.641 23.2667L130.723 12.4575H134.786L140.61 20.8791L146.476 12.4575H150.54L142.662 23.2667L151.001 34.6637H146.81H146.813Z" fill="#08181A"></path>
</svg>